<svg id="Capa_1" enable-background="new 0 0 512 512" height="512" viewBox="0 0 512 512" width="512" xmlns="http://www.w3.org/2000/svg"><g><g><g><path d="m345.915 7.5h-179.83c-8.335 0-16.329 3.311-22.222 9.205l-127.158 127.158c-5.894 5.894-9.205 13.887-9.205 22.222v179.829c0 8.335 3.311 16.329 9.205 22.222l127.158 127.158c5.894 5.894 13.887 9.205 22.222 9.205h179.829c8.335 0 16.329-3.311 22.222-9.205l127.158-127.158c5.894-5.894 9.205-13.887 9.205-22.222v-179.829c0-8.335-3.311-16.329-9.205-22.222l-127.157-127.158c-5.894-5.894-13.887-9.205-22.222-9.205z" fill="#fd4755"/><path d="m368.137 16.705c-5.894-5.894-13.887-9.205-22.223-9.205h-66.539c2.978 4.609 6.539 9.822 10.73 15.419 1.053 1.406 2.105 2.774 3.155 4.122h-.639c13.649 16.762 75.273 96.097 64.231 207.008-15.224 152.943-154.52 224.253-163.546 228.681-11.458 5.935-21.782 10.428-30.298 13.796-9.174 3.153-17.25 8.053-23.837 14.077l4.692 4.692c5.894 5.894 13.887 9.205 22.222 9.205h179.829c8.335 0 16.329-3.311 22.222-9.205l127.158-127.158c5.894-5.894 9.205-13.887 9.205-22.222v-179.83c0-8.335-3.311-16.329-9.205-22.222z" fill="#fb2b3a"/><path d="m339.371 37.572h-166.742c-4.549 0-8.912 1.807-12.129 5.024l-117.904 117.904c-3.217 3.217-5.024 7.58-5.024 12.129v166.741c0 4.549 1.807 8.912 5.024 12.129l117.904 117.905c3.217 3.217 7.58 5.024 12.129 5.024h166.741c4.549 0 8.912-1.807 12.129-5.024l117.905-117.904c3.217-3.217 5.024-7.58 5.024-12.129v-166.742c0-4.549-1.807-8.912-5.024-12.129l-117.904-117.904c-3.217-3.216-7.58-5.024-12.129-5.024z" fill="#fed402"/><path d="m351.5 42.596c-3.217-3.217-7.58-5.024-12.129-5.024h-38.603c21.226 28.89 65.593 100.976 56.086 196.477-15.226 152.943-154.522 224.253-163.548 228.681-8.859 4.589-17.029 8.308-24.222 11.319 1.157.245 2.343.379 3.544.379h166.741c4.549 0 8.912-1.807 12.129-5.024l117.906-117.904c3.217-3.217 5.024-7.58 5.024-12.129v-166.742c0-4.549-1.807-8.912-5.024-12.129z" fill="#f7bc09"/></g><g><path d="m188.013 151.503h-39.399c-8.33 0-15.083 6.753-15.083 15.083s6.753 15.083 15.083 15.083h24.316v166.561c0 8.33 6.753 15.083 15.083 15.083s15.083-6.753 15.083-15.083v-181.644c0-8.33-6.753-15.083-15.083-15.083z" fill="#685e68"/><path d="m343.381 239.273c8.856-9.614 14.277-22.439 14.277-36.51 0-29.745-24.199-53.944-53.943-53.944s-53.944 24.199-53.944 53.944c0 14.071 5.421 26.896 14.277 36.51-17.367 12.414-28.719 32.727-28.719 55.654 0 37.708 30.678 68.386 68.386 68.386s68.386-30.678 68.386-68.386c0-22.928-11.353-43.24-28.72-55.654zm-63.444-36.51c0-13.111 10.667-23.778 23.778-23.778s23.778 10.667 23.778 23.778-10.667 23.778-23.778 23.778c-13.111-.001-23.778-10.667-23.778-23.778zm23.778 130.384c-21.075 0-38.22-17.146-38.22-38.22s17.146-38.221 38.22-38.221 38.22 17.146 38.22 38.221-17.145 38.22-38.22 38.22z" fill="#685e68"/><path d="m341.618 299.769c-.891 7.008-3.683 13.426-7.846 18.724-7.587 16.346-16.497 31.237-26.1 44.697 35.873-2.058 64.43-31.884 64.43-68.263 0-17.391-6.536-33.273-17.27-45.349-2.856 17.918-7.405 34.646-13.214 50.191z" fill="#554e56"/></g><path d="m493.644 75.302h-54.274c-1.657 0-3-1.343-3-3v-54.274c0-3.404-2.759-6.163-6.163-6.163h-17.745c-3.404 0-6.164 2.759-6.164 6.164v54.274c0 1.657-1.343 3-3 3h-54.274c-3.404 0-6.163 2.759-6.163 6.163v17.746c0 3.404 2.759 6.163 6.163 6.163h54.274c1.657 0 3 1.343 3 3v54.274c0 3.404 2.76 6.164 6.164 6.164h17.745c3.404 0 6.164-2.76 6.164-6.164v-54.274c0-1.657 1.343-3 3-3h54.274c3.404 0 6.163-2.759 6.163-6.163v-17.746c0-3.404-2.76-6.164-6.164-6.164z" fill="#685e68"/><g fill="#554e56"><path d="m421.37 57.652c0 8.284 6.716 15 15 15v-54.624c0-3.404-2.759-6.163-6.163-6.163h-8.837z"/><path d="m493.644 75.302h-8.836v8.909c0 3.404-2.759 6.163-6.163 6.163h-41.252c-8.849 0-16.022 7.173-16.022 16.022v41.252c0 3.404-2.759 6.163-6.163 6.163h-8.909v8.837c0 3.404 2.759 6.163 6.163 6.163h17.745c3.404 0 6.163-2.759 6.163-6.163v-54.274c0-1.657 1.343-3 3-3h54.274c3.404 0 6.163-2.759 6.163-6.163v-17.745c.001-3.404-2.759-6.164-6.163-6.164z"/></g></g><path d="m188.013 144.003h-39.399c-12.452 0-22.583 10.13-22.583 22.583s10.131 22.583 22.583 22.583h16.816v159.061c0 12.452 10.131 22.583 22.583 22.583s22.583-10.131 22.583-22.583v-181.645c0-12.452-10.131-22.582-22.583-22.582zm7.583 204.227c0 4.181-3.401 7.583-7.583 7.583s-7.583-3.402-7.583-7.583v-166.562c0-4.142-3.358-7.5-7.5-7.5h-24.316c-4.181 0-7.583-3.402-7.583-7.583s3.402-7.583 7.583-7.583h39.399c4.181 0 7.583 3.401 7.583 7.583zm139.397-145.467c0-17.247-14.031-31.278-31.278-31.278s-31.278 14.031-31.278 31.278 14.031 31.277 31.278 31.277c17.246 0 31.278-14.031 31.278-31.277zm-47.556 0c0-8.976 7.302-16.278 16.278-16.278s16.278 7.302 16.278 16.278-7.302 16.277-16.278 16.277-16.278-7.302-16.278-16.277zm213.162-64.203-25.686-25.686h18.731c7.534 0 13.664-6.129 13.664-13.664v-17.745c0-7.534-6.129-13.663-13.664-13.663h-49.774v-49.774c0-7.534-6.129-13.663-13.663-13.663h-17.746c-7.534 0-13.664 6.129-13.664 13.664v18.731l-25.357-25.359c-7.352-7.352-17.127-11.401-27.525-11.401h-179.83c-10.398 0-20.173 4.049-27.525 11.401l-127.159 127.159c-7.352 7.352-11.401 17.128-11.401 27.525v179.829c0 10.398 4.049 20.173 11.401 27.525l127.159 127.16c7.352 7.352 17.127 11.401 27.525 11.401h179.829c10.398 0 20.173-4.049 27.525-11.401l127.16-127.159c7.352-7.352 11.401-17.127 11.401-27.525v-179.83c0-10.397-4.049-20.173-11.401-27.525zm-97.301-55.758c5.79 0 10.5-4.71 10.5-10.5v-52.937h15.072v52.938c0 5.79 4.71 10.5 10.5 10.5h52.938v15.072h-52.938c-5.79 0-10.5 4.71-10.5 10.5v52.938h-15.072v-52.938c0-5.79-4.71-10.5-10.5-10.5h-52.938v-15.073zm93.702 263.113c0 6.391-2.489 12.4-7.008 16.919l-127.159 127.158c-4.519 4.519-10.528 7.008-16.919 7.008h-179.829c-6.391 0-12.4-2.489-16.919-7.008l-127.158-127.159c-4.519-4.519-7.008-10.527-7.008-16.918v-179.83c0-6.391 2.489-12.4 7.008-16.919l127.159-127.158c4.519-4.519 10.527-7.008 16.918-7.008h179.829c6.391 0 12.4 2.489 16.919 7.008l35.964 35.964v9.83h-11.486l-30.509-30.509c-4.656-4.656-10.847-7.221-17.432-7.221h-166.741c-6.585 0-12.776 2.564-17.432 7.221l-117.904 117.904c-4.656 4.656-7.221 10.847-7.221 17.432v166.741c0 6.585 2.564 12.776 7.221 17.432l117.904 117.904c4.656 4.656 10.847 7.221 17.432 7.221h166.741c6.585 0 12.776-2.564 17.432-7.221l117.904-117.904c4.656-4.656 7.221-10.847 7.221-17.432v-166.741c0-6.585-2.564-12.776-7.221-17.432l-5.653-5.653c-2.929-2.929-7.678-2.929-10.606 0-2.929 2.929-2.929 7.678 0 10.606l5.653 5.653c1.823 1.823 2.827 4.247 2.827 6.826v166.741c0 2.579-1.004 5.002-2.827 6.826l-117.904 117.905c-1.823 1.823-4.247 2.827-6.826 2.827h-166.741c-2.579 0-5.002-1.004-6.826-2.827l-117.904-117.905c-1.823-1.823-2.827-4.247-2.827-6.826v-166.741c0-2.579 1.004-5.002 2.827-6.826l117.905-117.904c1.823-1.823 4.247-2.827 6.826-2.827h166.741c2.579 0 5.002 1.004 6.826 2.827l19.903 19.903h-17.075c-7.534 0-13.664 6.129-13.664 13.663v17.746c0 7.534 6.129 13.664 13.663 13.664h49.774v49.774c0 7.534 6.129 13.664 13.664 13.664h17.745c7.534 0 13.664-6.129 13.664-13.664v-49.774h9.83l36.292 36.292c4.519 4.519 7.008 10.528 7.008 16.919v179.829zm-143.057-107.804c7.277-10.307 11.215-22.6 11.215-35.349 0-33.88-27.563-61.444-61.443-61.444s-61.444 27.564-61.444 61.444c0 12.749 3.938 25.042 11.216 35.349-16.192 14.342-25.658 35.052-25.658 56.815 0 4.142 3.358 7.5 7.5 7.5s7.5-3.358 7.5-7.5c0-19.578 9.563-38.102 25.581-49.552 3.602-2.575 4.149-7.933 1.155-11.183-7.928-8.606-12.293-19.768-12.293-31.429 0-25.609 20.834-46.444 46.444-46.444 25.609 0 46.443 20.835 46.443 46.444 0 11.662-4.366 22.823-12.293 31.429-2.999 3.255-2.458 8.601 1.155 11.183 16.018 11.45 25.581 29.974 25.581 49.552 0 33.573-27.313 60.886-60.886 60.886-25.058 0-47.266-15.066-56.577-38.383-1.537-3.847-5.898-5.722-9.747-4.184-3.847 1.537-5.72 5.9-4.184 9.747 11.601 29.049 39.277 47.819 70.507 47.819 41.844 0 75.886-34.042 75.886-75.886 0-21.762-9.466-42.472-25.658-56.814zm-95.948 56.816c0 25.21 20.51 45.72 45.72 45.72s45.72-20.51 45.72-45.72-20.51-45.721-45.72-45.721-45.72 20.51-45.72 45.721zm45.72-30.721c16.939 0 30.72 13.781 30.72 30.721 0 16.939-13.781 30.72-30.72 30.72s-30.72-13.781-30.72-30.72c0-16.94 13.781-30.721 30.72-30.721z"/></g></svg>