<svg height="512pt" viewBox="0 0 512 512" width="512pt" xmlns="http://www.w3.org/2000/svg"><path d="m502 256c0 135.863281-110.136719 246-246 246s-246-110.136719-246-246 110.136719-246 246-246 246 110.136719 246 246zm0 0" fill="#98a1b3"/><path d="m453 256c0 108.800781-88.199219 197-197 197s-197-88.199219-197-197 88.199219-197 197-197 197 88.199219 197 197zm0 0" fill="#ff9357"/><path d="m237.410156 186.222656c-39.527344 39.523438-54.832031 94.070313-46 145.265625 51.195313 8.832031 105.742188-6.46875 145.269532-46 39.523437-39.527343 54.828124-94.070312 45.996093-145.265625-51.195312-8.832031-105.738281 6.472656-145.265625 46zm0 0" fill="#9bc6ff"/><path d="m382.675781 140.222656c-28.128906-4.851562-57.269531-2.402344-84.378906 7.335938 1.65625 19.171875 9.816406 37.886718 24.484375 52.558594 14.671875 14.667968 33.386719 22.828124 52.558594 24.484374 9.738281-27.105468 12.191406-56.246093 7.335937-84.378906zm0 0" fill="#dff6fc"/><path d="m115.898438 331.488281h75.511718v75.511719zm0 0" fill="#79b2ff"/><path d="m437.019531 74.980469c-48.351562-48.351563-112.640625-74.980469-181.019531-74.980469s-132.667969 26.628906-181.019531 74.980469c-48.351563 48.351562-74.980469 112.640625-74.980469 181.019531s26.628906 132.667969 74.980469 181.019531c48.351562 48.351563 112.640625 74.980469 181.019531 74.980469s132.667969-26.628906 181.019531-74.980469c48.351563-48.351562 74.980469-112.640625 74.980469-181.019531s-26.628906-132.667969-74.980469-181.019531zm-181.019531 417.019531c-130.132812 0-236-105.867188-236-236s105.867188-236 236-236 236 105.867188 236 236-105.867188 236-236 236zm0 0"/><path d="m416.074219 124.742188c-29.847657-36.355469-71.488281-61.679688-117.261719-71.308594-5.40625-1.128906-10.707031 2.324218-11.84375 7.726562-1.136719 5.40625 2.320312 10.710938 7.726562 11.847656 38.191407 8.03125 71.71875 27.703126 97.199219 54.792969h-271.855469c25.699219-27.328125 59.609376-47.089843 98.261719-55 5.414063-1.109375 8.898438-6.394531 7.792969-11.804687s-6.386719-8.902344-11.800781-7.792969c-46.03125 9.421875-87.945313 34.679687-118.023438 71.121094-30.480469 36.9375-47.269531 83.703125-47.269531 131.675781 0 114.140625 92.859375 207 207 207s207-92.859375 207-207c0-47.777344-16.664062-94.390625-46.925781-131.257812zm-7.777344 239.652343c-.636719-.125-1.292969-.195312-1.964844-.195312h-204.921875v-21.246094c6.0625.632813 12.121094.945313 18.160156.945313 39.816407 0 78.65625-13.550782 109.835938-38.511719.085938.003906.171875.015625.261719.015625h106.695312c-5.878906 21.4375-15.472656 41.351562-28.066406 58.992187zm-268.253906-22.90625h41.367187v41.367188zm-24.144531-20c-4.042969 0-7.6875 2.4375-9.238282 6.171875-1.546875 3.738282-.691406 8.039063 2.167969 10.898438l25.640625 25.640625h-30.90625c-12.527344-17.59375-22.070312-37.441407-27.925781-58.800781h103.390625c.0625 5.355468.367187 10.722656.925781 16.089843zm253.289062-110.632812c-30.828125-1.507813-55.636719-26.316407-57.144531-57.144531 19.871093-5.621094 40.890625-7.316407 61.835937-4.691407 2.628906 20.949219.929688 41.96875-4.691406 61.835938zm-76.585938-50.222657c4.492188 36.320313 33.347657 65.171876 69.664063 69.667969-7.667969 17.738281-18.65625 34.117188-32.65625 48.121094-33.964844 33.960937-81.875 50.230469-129.398437 44.269531-5.964844-47.527344 10.308593-95.4375 44.269531-129.398437 14.003906-14.003907 30.378906-24.988281 48.121093-32.660157zm-112.675781 124.765626h-108.609375c-1.515625-9.578126-2.316406-19.394532-2.316406-29.398438 0-9.96875.804688-19.789062 2.34375-29.398438h125.273438c-8.933594 18.4375-14.597657 38.351563-16.691407 58.796876zm170.578125 0c15.449219-17.296876 27.144532-37.324219 34.671875-58.800782h55.46875c1.546875 9.613282 2.355469 19.4375 2.355469 29.402344 0 10-.800781 19.816406-2.320312 29.398438zm85.78125-78.796876h-45.402344c4.25-19.097656 5.320313-38.972656 2.980469-58.800781h12.46875c.628907 0 1.238281-.066406 1.832031-.175781 12.636719 17.726562 22.230469 37.664062 28.121094 58.976562zm-330.617187-58.800781h167.402343c-15.578124 8.132813-30.019531 18.640625-42.730468 31.347657-8.441406 8.445312-15.902344 17.65625-22.351563 27.453124h-132.296875c5.882813-21.324218 15.46875-41.261718 28.089844-58.984374.613281.117187 1.242188.183593 1.886719.183593zm150.332031 295.199219c-53.535156 0-101.886719-22.621094-136.007812-58.800781h34.476562l29.871094 29.871093c1.914062 1.914063 4.472656 2.929688 7.074218 2.929688 1.289063 0 2.589844-.25 3.824219-.761719 3.738281-1.546875 6.171875-5.191406 6.171875-9.238281v-22.800781h190.597656c-34.121093 36.179687-82.472656 58.800781-136.007812 58.800781zm0 0"/><path d="m256 69c2.628906 0 5.210938-1.070312 7.070312-2.929688 1.859376-1.859374 2.929688-4.441406 2.929688-7.070312s-1.070312-5.210938-2.929688-7.070312c-1.859374-1.859376-4.441406-2.929688-7.070312-2.929688s-5.210938 1.070312-7.070312 2.929688c-1.859376 1.859374-2.929688 4.441406-2.929688 7.070312s1.070312 5.210938 2.929688 7.070312c1.859374 1.859376 4.441406 2.929688 7.070312 2.929688zm0 0"/><path d="m356.828125 166.070312c-.816406-4.703124-4.90625-8.28125-9.839844-8.28125-4.9375 0-9.027343 3.578126-9.84375 8.28125-4.699219.816407-8.277343 4.90625-8.277343 9.839844 0 4.9375 3.578124 9.027344 8.277343 9.84375.816407 4.699219 4.90625 8.28125 9.84375 8.28125 4.933594 0 9.023438-3.582031 9.839844-8.28125 4.703125-.816406 8.28125-4.90625 8.28125-9.84375 0-4.933594-3.578125-9.023437-8.28125-9.839844zm0 0"/><path d="m314.140625 259.746094c5.523437 0 10-4.480469 10-10 0-5.523438-4.476563-10-10-10-1.199219 0-2.171875-.976563-2.171875-2.171875 0-5.523438-4.476562-10-10-10s-10 4.476562-10 10c0 12.226562 9.945312 22.171875 22.171875 22.171875zm0 0"/><path d="m238.925781 224.601562c0 12.226563 9.945313 22.171876 22.171875 22.171876 5.523438 0 10-4.476563 10-10 0-5.519532-4.476562-10-10-10-1.199218 0-2.171875-.972657-2.171875-2.171876 0-5.519531-4.476562-10-10-10-5.523437 0-10 4.476563-10 10zm0 0"/><path d="m257.253906 275.359375c-1.199218 0-2.171875-.972656-2.171875-2.171875 0-5.519531-4.476562-10-10-10-5.523437 0-10 4.480469-10 10 0 12.226562 9.945313 22.171875 22.171875 22.171875 5.523438 0 10-4.476563 10-10 0-5.519531-4.476562-10-10-10zm0 0"/></svg>