<svg id="flat" height="512" viewBox="0 0 512 512" width="512" xmlns="http://www.w3.org/2000/svg"><path d="m280 280v-184a48 48 0 0 1 48-48h96.0001a48 48 0 0 1 48 48v184z" fill="#c7894c"/><circle cx="264" cy="200" fill="#e6a565" r="104"/><path d="m341.65674 181.65674-11.31348-11.31348-22.34326 22.34326-28.68652-28.68652 22.34326-22.34326-11.31348-11.31348-22.34326 22.34326-22.34326-22.34326-11.31348 11.31348 22.34326 22.34326-28.68652 28.68652-22.34326-22.34326-11.31348 11.31348 22.34326 22.34326-36.6914 36.69141 11.31347 11.31347 36.69141-36.6914 28.68652 28.68652-19.77636 19.77637 11.31347 11.31347 19.77637-19.77636 37.36865 37.36865 11.31348-11.31348-37.36865-37.36865 28.68652-28.68652 22.34326 22.34326 11.31348-11.31348-22.34326-22.34326zm-73.65674 51.02978-28.68652-28.68652 28.68652-28.68652 28.68652 28.68652z" fill="#c7894c"/><path d="m200 280h-136l-.5-25.39-5.87-16.44-18.83-52.73-5.8-16.25a62.66493 62.66493 0 0 1 87.07007-77.15 71.44686 71.44686 0 0 1 34.11987 36.7l42.40015 102.97z" fill="#f5b97d"/><path d="m488 304-9.6 32-4.8 16-7.2 24-4.8 16-7.2 24-4.8 16-2.75989 9.2a32.00267 32.00267 0 0 1 -30.65017 22.8h-320.37988a32.00267 32.00267 0 0 1 -30.65015-22.8l-2.75991-9.2-4.8-16-7.2-24-4.8-16-7.2-24-4.8-16-9.6-32z" fill="#b1712c"/><path d="m24 304v-24l112-72 184 72v24z" fill="#fcd453"/><path d="m488 304v-32l-64-48-104 56v24z" fill="#fac623"/><path d="m113.87 151.15a62.44533 62.44533 0 0 1 -15.77991 41.5l-40.46009 45.52-18.83-52.73 20.71-24.86a68.34232 68.34232 0 0 1 52.49-24.58 62.59521 62.59521 0 0 1 1.87 15.15z" fill="#e6a565"/><g fill="#ab6f33"><path d="m416 76.686h16v22.627h-16z" transform="matrix(.707 -.707 .707 .707 61.961 325.588)"/><path d="m391.056 108h17.889v16h-17.889z" transform="matrix(.894 -.447 .447 .894 -9.648 191.132)"/><path d="m388.686 152h22.627v16h-22.627z" transform="matrix(.707 -.707 .707 .707 4.02 329.706)"/><path d="m428 127.056h16v17.889h-16z" transform="matrix(.894 -.447 .447 .894 -14.791 209.343)"/><path d="m352 84.686h16v22.627h-16z" transform="matrix(.707 -.707 .707 .707 37.559 282.676)"/><path d="m428 183.056h16v17.889h-16z" transform="matrix(.894 -.447 .447 .894 -39.835 215.255)"/><path d="m395.056 192h17.889v16h-17.889z" transform="matrix(.447 -.894 .894 .447 44.44 471.906)"/></g><path d="m478.4 336h-58.4a12.00951 12.00951 0 0 1 -12-12v-20h-16v20a27.74986 27.74986 0 0 0 2.71 12h-78.71a12.00951 12.00951 0 0 1 -12-12v-20h-16v20a27.74986 27.74986 0 0 0 2.71 12h-86.71a12.00951 12.00951 0 0 1 -12-12v-20h-16v20a27.74986 27.74986 0 0 0 2.71 12h-62.71a12.00951 12.00951 0 0 1 -12-12v-20h-16v20a27.74986 27.74986 0 0 0 2.71 12h-57.11l4.8 16h21.6a12 12 0 0 1 0 24h-14.4l4.8 16h40.31a27.92364 27.92364 0 0 0 0 24h-33.11l4.8 16h93.6a12.00951 12.00951 0 0 1 12 12v20h16v-20a27.74966 27.74966 0 0 0 -2.71-12h62.71a12.00951 12.00951 0 0 1 12 12v20h16v-20a27.74966 27.74966 0 0 0 -2.71-12h78.71a12.00951 12.00951 0 0 1 12 12v20h16v-20a27.74966 27.74966 0 0 0 -2.71-12h76.31l4.8-16h-42.4a12 12 0 0 1 0-24h49.6l4.8-16h-21.11a27.92364 27.92364 0 0 0 0-24h28.31zm-201.11 16h62.71a12 12 0 0 1 0 24h-62.71a27.92364 27.92364 0 0 0 0-24zm-104 0h78.71a12 12 0 0 1 0 24h-78.71a27.92364 27.92364 0 0 0 0-24zm-88 24a27.92364 27.92364 0 0 0 0-24h62.71a12 12 0 0 1 0 24zm109.42 40h-78.71a12 12 0 0 1 0-24h78.71a27.92364 27.92364 0 0 0 0 24zm112 0h-86.71a12 12 0 0 1 0-24h86.71a27.92364 27.92364 0 0 0 0 24zm80 0h-54.71a12 12 0 0 1 0-24h54.71a27.92364 27.92364 0 0 0 0 24zm33.29-40h-54.71a27.92364 27.92364 0 0 0 0-24h54.71a12 12 0 0 1 0 24z" fill="#91591c"/></svg>