<svg height="512pt" viewBox="-112 0 512 512" width="512pt" xmlns="http://www.w3.org/2000/svg"><path d="m8.015625 439.859375v-432.84375h112.21875v432.84375zm0 0" fill="#aaefb8"/><path d="m8.015625 439.859375v-432.84375h112.21875v432.84375zm0 0" fill="#aaefb8"/><path d="m8.015625 439.859375v-48.09375h112.21875v48.09375zm0 0" fill="#00dba8"/><path d="m8.015625 151.296875v240.46875h24.046875v-232.453125c-4.007812 4.007812-8.015625 8.015625-8.015625 8.015625zm0 0" fill="#00dba8"/><path d="m8.015625 103.203125v48.09375l16.03125 16.03125 16.03125-16.03125 16.03125 16.03125 16.03125-16.03125 16.03125 16.03125 16.03125-16.03125 16.03125 16.03125v-64.125zm0 0" fill="#fff"/><path d="m8.015625 103.203125v48.09375l16.03125 16.03125 8.015625-8.015625v-56.109375zm0 0" fill="#e4e8ed"/><path d="m8.015625 103.203125v-96.1875h112.21875v96.1875zm0 0" fill="#f7b8d6"/><path d="m8.015625 103.203125v-96.1875h24.046875v96.1875zm0 0" fill="#f072ae"/><path d="m168.328125 503.984375v-432.84375h112.21875v432.84375zm0 0" fill="#aaefb8"/><g fill="#00dba8"><path d="m168.328125 503.984375v-432.84375h24.046875v432.84375zm0 0"/><path d="m168.328125 503.984375v-48.09375h112.21875v48.09375zm0 0"/><path d="m168.328125 119.234375v-48.09375h112.21875v48.09375zm0 0"/></g><path d="m248.984375 135.265625h15.03125v64.125h-15.03125zm0 0" fill="#fff"/><path d="m248.984375 215.421875h15.03125v16.03125h-15.03125zm0 0" fill="#fff"/><path d="m0 447.875h127.25v-384.75h-15.03125v33.0625h-97.1875v-81.15625h97.1875v32.0625h15.03125v-47.09375h-127.25zm15.03125-336.65625h97.1875v37.964844l-8.265625-8.515625-15.90625 16.03125-15.96875-16.03125-16 16.03125-16.015625-16.03125-16.273438 16.03125-8.757812-8.515625zm0 58.21875 8.765625 8.515625 16.15625-16.03125 16.09375 16.03125 16.0625-16.03125 16.046875 16.03125 15.789062-16.03125 8.273438 8.519531v214.308594h-37.964844l8.515625-8.765625-16.03125-16.15625 16.03125-16.09375-16.03125-16.0625 16.03125-16.046875-16.03125-16.039062 16.03125-16.035157-16.03125-16.035156 16.03125-16.03125-16.03125-16.035156 16.03125-16.03125-21.34375-21.34375-10.628906 10.628906 10.71875 10.71875-16.03125 16.03125 16.03125 16.03125-16.03125 16.03125 16.03125 16.03125-16.03125 16.03125 16.03125 16.03125-16.03125 16.03125 16.03125 16.03125-16.03125 16.03125 16.03125 16.28125-8.519531 8.765625h-37.964844zm0 230.34375h97.1875v33.0625h-97.1875zm0 0"/><path d="m160.3125 64.125v447.875h127.25v-447.875zm15.03125 63.125h38.96875l-8.515625 8.265625 16.03125 15.78125-16.03125 16.03125 16.03125 16.03125-16.03125 16.03125 16.03125 16.03125-16.03125 16.03125 16.03125 16.03125-16.03125 16.03125 16.03125 16.03125-16.03125 16.03125 16.03125 16.03125-16.03125 16.03125 16.03125 16.03125-16.03125 16.03125 16.03125 16.03125-16.03125 16.03125 16.03125 16.03125-16.03125 16.03125 16.03125 16.28125-8.519531 8.765625h-37.964844zm97.1875 369.71875h-97.1875v-33.0625h97.1875zm0-48.09375h-37.964844l8.515625-8.765625-16.03125-16.28125 16.03125-16.03125-16.03125-16.03125 16.03125-16.03125-16.03125-16.03125 16.03125-16.03125-16.03125-16.03125 16.03125-16.03125-16.03125-16.03125 16.03125-16.03125-16.03125-16.03125 16.03125-16.03125-16.03125-16.03125 16.03125-16.03125-16.03125-16.03125 16.03125-16.03125-16.03125-16.03125 16.03125-16.03125-16.03125-15.78125 8.515625-8.265625h36.964844zm0-336.65625h-97.1875v-33.0625h97.1875zm0 0"/></svg>