<svg height="512pt" viewBox="0 0 512 512" width="512pt" xmlns="http://www.w3.org/2000/svg"><path d="m157.019531 504.5c-.816406 0-1.472656-.660156-1.472656-1.472656v-44.542969c0-.816406.65625-1.476563 1.472656-1.476563h315.871094c.773437 0 1.398437.625 1.398437 1.398438v44.695312c0 .773438-.625 1.398438-1.398437 1.398438zm0 0" fill="#e1ebf0"/><path d="m472.890625 457.007812h-38.601563v5.570313c0 12.105469-9.816406 21.921875-21.921874 21.921875h-256.820313v18.527344c0 .8125.65625 1.472656 1.472656 1.472656h315.871094c.773437 0 1.398437-.625 1.398437-1.398438v-44.695312c0-.769531-.625-1.398438-1.398437-1.398438zm0 0" fill="#b4d2d7"/><path d="m155.546875 503.027344v-44.542969c0-.816406.65625-1.476563 1.472656-1.476563h162.988281v-240.25h-312.507812v279.851563c0 4.359375 3.53125 7.890625 7.890625 7.890625h141.628906c-.816406 0-1.472656-.660156-1.472656-1.472656zm0 0" fill="#e7387f"/><path d="m157.019531 504.5h-141.628906c-4.355469 0-7.890625-3.53125-7.890625-7.890625v-12.109375h148.046875v18.527344c0 .8125.65625 1.472656 1.472656 1.472656zm122.988281-287.742188v158.585938c0 32.496094-14.207031 61.667969-36.738281 81.664062h76.738281v-240.25zm0 0" fill="#c40955"/><path d="m403.222656 298.816406h-51.84375c-5.960937 0-11.035156-4.632812-11.246094-10.589844-.222656-6.253906 4.78125-11.390624 10.984376-11.390624h97.664062c5.960938 0 11.035156 4.632812 11.25 10.589843.222656 6.253907-4.78125 11.390625-10.984375 11.390625h38.957031c9.109375 0 16.496094 7.386719 16.496094 16.496094 0 9.113281-7.386719 16.496094-16.496094 16.496094h-18.816406c13.792969 0 24.972656 11.179687 24.972656 24.972656v101.957031h-19.871094v-92.640625c0-3.351562-2.71875-6.066406-6.066406-6.066406h-31.195312c-7.6875 0-14.1875-6.027344-14.398438-13.714844-.21875-7.972656 6.179688-14.507812 14.105469-14.507812h-44.851563c-9.265624 0-16.746093-7.636719-16.488281-16.960938.246094-8.984375 7.84375-16.03125 16.832031-16.03125zm0 0" fill="#5e93bb"/><path d="m474.289062 502.769531h24.355469c1.179688 0 2.136719-.957031 2.136719-2.136719v-39.753906c0-1.183594-.957031-2.140625-2.136719-2.140625h-24.355469zm0 0" fill="#c40955"/><path d="m155.546875 458.484375v44.542969c0 .8125.65625 1.472656 1.472656 1.472656h98.839844v-47.492188h-98.839844c-.816406 0-1.472656.660157-1.472656 1.476563zm0 0" fill="#d86b3e"/><path d="m157.019531 504.5h98.839844v-20h-100.3125v18.527344c0 .8125.65625 1.472656 1.472656 1.472656zm0 0" fill="#af4c23"/><path d="m312.113281 21.578125h-105.5v79.847656h-42.859375v-79.847656h-148.363281c-4.355469 0-7.890625 3.53125-7.890625 7.890625v187.289062h312.507812v-187.289062c0-4.359375-3.535156-7.890625-7.894531-7.890625zm0 0" fill="#e7387f"/><path d="m312.113281 21.578125h-32.105469v121.082031c0 29.878906-24.222656 54.097656-54.097656 54.097656h-218.410156v20h312.507812v-187.289062c0-4.359375-3.535156-7.890625-7.894531-7.890625zm0 0" fill="#c40955"/><path d="m249.476562 162.40625c0 8.605469-6.976562 15.582031-15.582031 15.582031h-27.277343v-124.496093c0-2.347657 1.902343-4.25 4.246093-4.25h34.367188c2.34375 0 4.246093 1.902343 4.246093 4.25zm0 0" fill="#e1ebf0"/><path d="m245.230469 49.242188h-15.753907v98.164062c0 8.605469-6.976562 15.582031-15.582031 15.582031h-7.277343v15h27.277343c8.605469 0 15.582031-6.976562 15.582031-15.582031v-108.914062c0-2.34375-1.902343-4.25-4.246093-4.25zm0 0" fill="#b4d2d7"/><path d="m78.027344 162.40625c0 8.605469 6.980468 15.582031 15.585937 15.582031h27.277344v-124.496093c0-2.347657-1.902344-4.25-4.25-4.25h-34.363281c-2.347656 0-4.25 1.902343-4.25 4.25zm0 0" fill="#e1ebf0"/><path d="m116.640625 49.242188h-15.75v98.164062c0 8.605469-6.976563 15.582031-15.582031 15.582031h-7.25c.308594 8.335938 7.144531 15 15.550781 15h27.28125v-124.496093c0-2.34375-1.902344-4.25-4.25-4.25zm0 0" fill="#b4d2d7"/><path d="m172.179688 259.101562 147.828124 147.832032v-190.175782h-312.507812v190.171876l147.828125-147.828126c4.652344-4.652343 12.195313-4.652343 16.851563 0zm0 0" fill="#e1ebf0"/><path d="m280.007812 216.757812v150.171876l40 40v-190.171876zm0 0" fill="#b4d2d7"/><path d="m249.488281 149.808594v12.597656c0 8.605469-6.976562 15.582031-15.585937 15.582031h-140.300782c-8.605468 0-15.582031-6.976562-15.582031-15.582031v-12.597656c0-18.25-14.792969-33.042969-33.042969-33.042969h-6.917968c-1.597656 0-2.894532 1.296875-2.894532 2.890625v97.101562h257.175782v-97.101562c0-1.59375-1.292969-2.890625-2.890625-2.890625h-6.921875c-18.246094 0-33.039063 14.792969-33.039063 33.042969zm0 0" fill="#5e93bb"/><path d="m289.449219 116.765625h-6.921875c-13.464844 0-25.039063 8.058594-30.1875 19.613281v33.039063c0 15.101562-12.242188 27.34375-27.34375 27.34375h-189.828125v20h257.171875v-97.105469c0-1.597656-1.292969-2.890625-2.890625-2.890625zm0 0" fill="#3f7196"/><path d="m163.753906 177.988281h-42.863281v-152.164062c0-2.34375 1.902344-4.246094 4.25-4.246094h34.363281c2.347656 0 4.25 1.902344 4.25 4.246094zm0 0" fill="#e1ebf0"/><path d="m159.503906 21.578125h-15.75v125.828125c0 8.605469-6.976562 15.582031-15.582031 15.582031h-7.28125v15h42.863281v-152.164062c0-2.34375-1.902344-4.246094-4.25-4.246094zm0 0" fill="#b4d2d7"/><path d="m206.617188 177.988281h-42.863282v-166.238281c0-2.347656 1.902344-4.25 4.25-4.25h34.363282c2.347656 0 4.25 1.902344 4.25 4.25zm0 0" fill="#e1ebf0"/><path d="m202.367188 7.5h-15.75v139.90625c0 8.605469-6.976563 15.582031-15.585938 15.582031h-7.277344v15h42.863282v-166.238281c0-2.347656-1.902344-4.25-4.25-4.25zm0 0" fill="#b4d2d7"/><g fill="#d86b3e"><path d="m120.890625 143.167969h-42.863281v-89.675781c0-2.347657 1.902344-4.25 4.25-4.25h34.363281c2.347656 0 4.25 1.902343 4.25 4.25zm0 0"/><path d="m163.753906 115.503906h-42.863281v-89.679687c0-2.34375 1.902344-4.246094 4.25-4.246094h34.363281c2.347656 0 4.25 1.902344 4.25 4.246094zm0 0"/><path d="m206.617188 101.425781h-42.863282v-89.675781c0-2.347656 1.902344-4.25 4.25-4.25h34.363282c2.347656 0 4.25 1.902344 4.25 4.25zm0 0"/><path d="m38.058594 116.765625h6.921875c18.246093 0 33.039062 14.792969 33.039062 33.042969l.007813-96.316406c0-2.347657-1.898438-4.25-4.246094-4.25h-34.367188c-2.34375 0-4.246093 1.902343-4.246093 4.25v66.164062c0-1.597656 1.292969-2.890625 2.890625-2.890625zm0 0"/></g><path d="m73.78125 49.242188h-15.753906l-.003906 70.203124c11.757812 5.058594 19.996093 16.746094 19.996093 30.359376l.007813-96.3125c0-2.347657-1.898438-4.25-4.246094-4.25zm0 0" fill="#af4c23"/><path d="m206.617188 143.167969h42.859374v-89.675781c0-2.347657-1.902343-4.25-4.246093-4.25h-34.367188c-2.34375 0-4.246093 1.902343-4.246093 4.25zm0 0" fill="#d86b3e"/><path d="m245.230469 49.242188h-15.753907v93.925781h20v-89.675781c0-2.355469-1.910156-4.25-4.246093-4.25zm0 0" fill="#af4c23"/><path d="m116.640625 49.242188h-15.75v93.925781h20v-89.675781c0-2.355469-1.914063-4.25-4.25-4.25zm0 0" fill="#af4c23"/><path d="m159.503906 22.839844h-15.75v93.925781h20v-89.675781c0-2.359375-1.914062-4.25-4.25-4.25zm0 0" fill="#af4c23"/><path d="m202.367188 7.5h-15.75v93.925781h20v-89.675781c0-2.359375-1.914063-4.25-4.25-4.25zm0 0" fill="#af4c23"/><path d="m289.449219 116.765625h-6.921875c-18.246094 0-33.039063 14.792969-33.039063 33.042969l-.011719-96.316406c0-2.347657 1.902344-4.25 4.25-4.25h34.363282c2.347656 0 4.25 1.902343 4.25 4.25v66.164062c0-1.597656-1.292969-2.890625-2.890625-2.890625zm0 0" fill="#d86b3e"/><path d="m291.617188 51.128906c-.046876-.101562-.304688-.390625-.398438-.488281-.042969-.050781-.078125-.105469-.125-.152344-.101562-.101562-.222656-.183593-.332031-.273437-.101563-.082032-.191407-.175782-.296875-.246094-.078125-.050781-.164063-.085938-.242188-.132812-.589844-.34375-.492187-.25-.699218-.324219-1.058594-.382813-.167969-.265625-17.183594-.265625v69.128906c3.210937-1.039062 6.632812-1.609375 10.1875-1.609375h6.921875c1.597656 0 2.890625 1.296875 2.890625 2.890625 0-65.808594.050781-66.351562-.085938-67.019531-.113281-.550781-.332031-1.058594-.636718-1.507813zm0 0" fill="#af4c23"/><path d="m198.039062 358.78125c0 18.933594-15.347656 34.285156-34.285156 34.285156-18.933594 0-34.285156-15.351562-34.285156-34.285156 0-18.9375 15.351562-34.289062 34.285156-34.289062 18.9375 0 34.285156 15.351562 34.285156 34.289062zm0 0" fill="#e1ebf0"/><path d="m501.660156 451.730469v-94.949219c0-6.972656-2.207031-13.4375-5.964844-18.738281 9.46875-3.210938 16.304688-12.1875 16.304688-22.730469 0-13.230469-10.765625-23.996094-23.996094-23.996094h-20.789062c2.175781-11.519531-6.628906-21.980468-18.433594-21.980468h-97.664062c-10.480469 0-18.851563 8.667968-18.480469 19.15625.355469 9.996093 8.589843 17.824218 18.742187 17.824218h18.308594c-6.488281 15.550782 5.09375 32.992188 22.195312 32.992188h24.265626c-4.566407 14.269531 6.5 28.21875 20.882812 28.21875h29.757812v13.054687c0 4.140625 3.359376 7.5 7.5 7.5 4.144532 0 7.5-3.359375 7.5-7.5v-14.484375c0-7.480468-6.085937-13.566406-13.566406-13.566406h-31.191406c-3.710938 0-6.804688-2.882812-6.902344-6.421875-.105468-3.757813 2.90625-6.800781 6.609375-6.800781 4.140625 0 7.5-3.359375 7.5-7.5s-3.359375-7.5-7.5-7.5h-44.851562c-5.039063 0-9.132813-4.144532-8.996094-9.253906.132813-4.816407 4.320313-8.738282 9.335937-8.738282h10.996094c4.144532 0 7.5-3.355468 7.5-7.5 0-4.140625-3.355468-7.5-7.5-7.5h-51.84375c-2 0-3.683594-1.503906-3.75-3.355468-.070312-1.992188 1.515625-3.625 3.488282-3.625h97.664062c2.003906 0 3.6875 1.503906 3.753906 3.355468.070313 2.003906-1.523437 3.625-3.488281 3.625-4.144531 0-7.5 3.359375-7.5 7.5 0 4.144532 3.355469 7.5 7.5 7.5h38.957031c4.960938 0 8.996094 4.035156 8.996094 8.996094s-4.035156 8.996094-8.996094 8.996094h-18.816406c-4.140625 0-7.5 3.359375-7.5 7.5s3.359375 7.5 7.5 7.5c9.636719 0 17.476562 7.839844 17.476562 17.476562v94.453125h-4.875v-35.65625c0-4.140625-3.355468-7.5-7.5-7.5-4.140624 0-7.5 3.359375-7.5 7.5v33.929688h-139.28125v-420.042969c0-8.488281-6.90625-15.390625-15.394531-15.390625h-98v-2.328125c.003907-6.480469-5.269531-11.75-11.746093-11.75h-34.363282c-6.480468 0-11.75 5.269531-11.75 11.75v2.328125h-140.863281c-8.484375 0-15.390625 6.902344-15.390625 15.390625v467.140625c0 8.484375 6.90625 15.390625 15.390625 15.390625h457.503906c1.960938 0 3.773438-.648438 5.246094-1.730469h20.503906c5.3125 0 9.636719-4.324219 9.636719-9.636719v-39.753906c0-4.261718-2.78125-7.878906-6.621094-9.148437zm-34.871094 45.269531h-203.429687v-32.492188h203.429687zm-451.789062-272.742188h31.597656c4.140625 0 7.5-3.355468 7.5-7.5 0-4.140624-3.359375-7.5-7.5-7.5h-3.929687v-84.992187h2.3125c14.082031 0 25.539062 11.457031 25.539062 25.542969v12.597656c0 12.730469 10.355469 23.082031 23.085938 23.082031h140.296875c12.730468 0 23.085937-10.351562 23.085937-23.082031v-12.597656c0-14.082032 11.457031-25.542969 25.539063-25.542969h2.3125v84.992187h-203.242188c-4.140625 0-7.5 3.359376-7.5 7.5 0 4.144532 3.359375 7.5 7.5 7.5h230.910156v164.566407l-135.027343-135.023438c-7.570313-7.570312-19.886719-7.570312-27.457031 0l-135.023438 135.023438zm241.980469-167.515624h27.859375v52.523437h-2.3125c-9.675782 0-18.566406 3.410156-25.542969 9.089844zm-42.863281 93.925781h27.859374v11.738281c0 4.457031-3.625 8.082031-8.082031 8.082031h-19.777343zm0-15v-78.925781h27.859374v78.925781zm-15 34.820312h-27.863282v-61.5625h27.863282zm-42.863282 0h-27.863281v-47.484375h27.863281zm-62.640625 0c-4.457031 0-8.085937-3.625-8.085937-8.082031v-11.738281h27.863281v19.820312zm19.777344-34.820312h-27.863281v-78.925781h27.863281zm-42.867187-17.3125c-6.976563-5.679688-15.871094-9.089844-25.542969-9.089844h-2.3125v-52.523437h27.859375zm241.589843-89.277344c.21875 0 .394531.175781.394531.390625v179.789062h-12.667968v-155.765624c0-6.476563-5.269532-11.75-11.75-11.75h-34.363282c-1.5 0-2.929687.292968-4.25.808593-1.320312-.515625-2.746093-.808593-4.246093-.808593h-31.113281v-12.664063zm-140.859375-14.078125h27.859375v78.925781h-27.859375zm-15 14.078125v78.925781h-27.863281v-78.925781zm-140.863281 0h98v12.664063h-31.113281c-1.5 0-2.929688.292968-4.25.808593-1.316406-.515625-2.746094-.808593-4.246094-.808593h-34.367188c-6.476562 0-11.746093 5.273437-11.746093 11.75v155.765624h-12.667969v-179.789062c0-.214844.175781-.390625.390625-.390625zm-.390625 467.53125v-86.574219l145.632812-145.628906c1.722657-1.722656 4.519532-1.722656 6.242188 0l145.632812 145.628906v39.472656h-86.703124c-4.144532 0-7.5 3.359376-7.5 7.5 0 4.140626 3.355468 7.5 7.5 7.5h22.554687v32.492188h-85.3125v-32.492188h27.757813c4.140624 0 7.5-3.355468 7.5-7.5 0-4.140624-3.359376-7.5-7.5-7.5h-33.785157c-4.949219 0-8.972656 4.027344-8.972656 8.976563v38.515625h-132.65625c-.214844 0-.390625-.175781-.390625-.390625zm478.28125-1.339844h-11.492188v-29.03125h11.492188zm0 0"/><path d="m163.753906 400.566406c23.039063 0 41.785156-18.746094 41.785156-41.785156 0-23.042969-18.746093-41.789062-41.785156-41.789062-23.042968 0-41.785156 18.746093-41.785156 41.789062 0 23.039062 18.746094 41.785156 41.785156 41.785156zm0-68.570312c14.769532 0 26.785156 12.015625 26.785156 26.785156s-12.015624 26.785156-26.785156 26.785156c-14.769531 0-26.785156-12.015625-26.785156-26.785156s12.015625-26.785156 26.785156-26.785156zm0 0"/></svg>