<svg height="512" viewBox="0 0 512 512" width="512" xmlns="http://www.w3.org/2000/svg"><g id="Flat"><path d="m144 24h96v48h-96z" fill="#e6e6e6" transform="matrix(-1 0 0 -1 384 96)"/><path d="m296 248v-40.8a191.19335 191.19335 0 0 0 -56-135.2h-101.6001a114.40168 114.40168 0 0 0 -114.3999 114.3999v61.6001a15.97833 15.97833 0 0 0 16 16 15.99548 15.99548 0 0 0 -16 16v176a32.00409 32.00409 0 0 0 32 32h208a32.00409 32.00409 0 0 0 32-32v-176a15.97833 15.97833 0 0 0 -16-16 15.99564 15.99564 0 0 0 16-16zm-155.31006-100.68994a16.08838 16.08838 0 0 1 -5.18994 3.46994 15.92529 15.92529 0 0 1 -6.12988 1.22 25.37175 25.37175 0 0 0 -25.37012 25.37012v32a15.92529 15.92529 0 0 1 -1.22 6.12988 15.9999 15.9999 0 0 1 -30.78-6.12988v-32a57.37583 57.37583 0 0 1 57.37012-57.37012 15.92529 15.92529 0 0 1 6.12988 1.22 16.00305 16.00305 0 0 1 5.18994 26.09009z" fill="#3ea7ff"/><path d="m24 296h272v160h-272z" fill="#e6e6e6" transform="matrix(-1 0 0 -1 320 752)"/><path d="m168 24h16v24h-16z" fill="#ccc"/><path d="m200 24h16v24h-16z" fill="#ccc"/><path d="m120 304h192v184h-192z" fill="#a0cc00"/><path d="m120 256h192v48h-192z" fill="#42c25e"/><path d="m120 336h128v120h-128z" fill="#c8ea6d"/><g fill="#2dac4d"><path d="m144 256h16v24h-16z"/><path d="m176 256h16v24h-16z"/><path d="m208 256h16v24h-16z"/><path d="m240 256h16v24h-16z"/><path d="m272 256h16v24h-16z"/></g><path d="m280 120v-48l-40 8v32z" fill="#e6e6e6"/><path d="m336 112v16.40206c0 25.35414-30.07192 45.66986-48 63.59794l-8 32.97057h40a16.91744 16.91744 0 0 0 12-4.97057l4.0811-4.0811a208.44821 208.44821 0 0 0 39.04656-54.1742l8.87234-17.7447z" fill="#ccc"/><path d="m296 112v16.40206a95.59787 95.59787 0 0 1 -28 67.59794 16.97055 16.97055 0 0 0 0 24 16.97055 16.97055 0 0 0 24 0l4.0811-4.0811a208.44821 208.44821 0 0 0 39.04656-54.1742l8.87234-17.7447z" fill="#e6e6e6"/><path d="m450.8501 160h-106.8501l-64-40v-48h98.8999a82.14771 82.14771 0 0 1 69.3101 38.05005l16.14014 25.35986a15.99907 15.99907 0 0 1 -13.50004 24.59009z" fill="#ff6f35"/><path d="m450.8501 160h-40a15.99907 15.99907 0 0 0 13.5-24.59009l-16.1401-25.35986a82.14771 82.14771 0 0 0 -69.3101-38.05005h40a82.14771 82.14771 0 0 1 69.3101 38.05005l16.14014 25.35986a15.99907 15.99907 0 0 1 -13.50004 24.59009z" fill="#e05e1d"/><path d="m360 160a20.62564 20.62564 0 0 1 10.34313 24.97054l-2.34313 7.02946h80v-32z" fill="#cc4412"/><path d="m360 192h96v32h-96z" fill="#808080"/><path d="m488 359.55005v128.44995h-200v-61.06006a80.20559 80.20559 0 0 1 28-60.87988 80.18217 80.18217 0 0 0 28-60.88013v-42.55a54.64169 54.64169 0 0 1 16-38.62993h96a303.16924 303.16924 0 0 1 32 135.55005z" fill="#ff6f35"/><path d="m424 408h-.759a66.70076 66.70076 0 0 0 -51.241 24 66.70079 66.70079 0 0 1 -51.241 24h-.759v-49.94109h.759a66.70079 66.70079 0 0 0 51.241-24 66.70076 66.70076 0 0 1 51.241-24h.759z" fill="#ff8856"/><path d="m488 359.55005v128.44995h-32v-128.44995a303.16924 303.16924 0 0 0 -32-135.55005h32a303.16924 303.16924 0 0 1 32 135.55005z" fill="#e05e1d"/></g></svg>