<?xml version="1.0"?>
<svg xmlns="http://www.w3.org/2000/svg" viewBox="0 0 64 64" width="512" height="512"><g id="Filled_outline" data-name="Filled outline"><rect x="6" y="11" width="55" height="4" style="fill:#ebb562"/><rect x="6" y="7" width="55" height="4" style="fill:#d3843d"/><path d="M8,32V42A14,14,0,0,0,22,56H19v4H45V56H42A14,14,0,0,0,56,42V32Z" style="fill:#f98c96"/><path d="M15,5h0a2,2,0,0,1,2,2V32a0,0,0,0,1,0,0H13a0,0,0,0,1,0,0V7A2,2,0,0,1,15,5Z" style="fill:#ffd782"/><path d="M19,5h0a2,2,0,0,1,2,2V32a0,0,0,0,1,0,0H17a0,0,0,0,1,0,0V7A2,2,0,0,1,19,5Z" style="fill:#efad3a"/><path d="M23,5h0a2,2,0,0,1,2,2V32a0,0,0,0,1,0,0H21a0,0,0,0,1,0,0V7A2,2,0,0,1,23,5Z" style="fill:#ffd782"/><path d="M27,5h0a2,2,0,0,1,2,2V32a0,0,0,0,1,0,0H25a0,0,0,0,1,0,0V7A2,2,0,0,1,27,5Z" style="fill:#efad3a"/><rect x="5" y="25" width="2" height="2" style="fill:#ffd782"/><rect x="2" y="20" width="2" height="2" style="fill:#ffd782"/><rect x="22" y="55" width="7" height="2" style="fill:#dd3e46"/><rect x="31" y="55" width="2" height="2" style="fill:#dd3e46"/><rect x="35" y="55" width="7" height="2" style="fill:#dd3e46"/><path d="M38.982,53V51c4.357,0,7.491-1.032,9.313-3.068a6.768,6.768,0,0,0,1.694-4.822l1.987-.22a8.781,8.781,0,0,1-2.191,6.376C47.567,51.744,43.933,53,38.982,53Z" style="fill:#fff"/><rect x="34.982" y="51" width="2" height="2" style="fill:#fff"/><rect x="8" y="32" width="48" height="8" style="fill:#dd3e46"/><rect x="8" y="35" width="48" height="2" style="fill:#ffd782"/><path d="M61,6H29.816A2.972,2.972,0,0,0,25,4.78a2.954,2.954,0,0,0-4,0,2.954,2.954,0,0,0-4,0A2.972,2.972,0,0,0,12.184,6H6A1,1,0,0,0,5,7v8a1,1,0,0,0,1,1h6V31H8a1,1,0,0,0-1,1V42A15.027,15.027,0,0,0,18,56.458V60a1,1,0,0,0,1,1H45a1,1,0,0,0,1-1V56.458A15.027,15.027,0,0,0,57,42V32a1,1,0,0,0-1-1H30V16H61a1,1,0,0,0,1-1V7A1,1,0,0,0,61,6ZM26,7a1,1,0,0,1,2,0V31H26ZM22,7a1,1,0,0,1,2,0V31H22ZM18,7a1,1,0,0,1,2,0V31H18ZM14,7a1,1,0,0,1,2,0V31H14ZM7,8h5v2H7Zm0,6V12h5v2ZM55,42A13.015,13.015,0,0,1,42,55H35v2h9v2H20V57h9V55H22A13.015,13.015,0,0,1,9,42V41H55Zm0-3H9V37H55Zm0-6v2H9V33Zm5-19H30V12H60Zm0-4H30V8H60Z"/><rect x="5" y="25" width="2" height="2"/><rect x="2" y="20" width="2" height="2"/><rect x="31" y="55" width="2" height="2"/><path d="M51.976,42.89l-1.987.22A6.768,6.768,0,0,1,48.3,47.932C46.473,49.968,43.339,51,38.982,51v2c4.951,0,8.585-1.256,10.8-3.734A8.781,8.781,0,0,0,51.976,42.89Z"/><rect x="34.982" y="51" width="2" height="2"/></g></svg>
