<svg height="511pt" viewBox="-63 0 511 511.99986" width="511pt" xmlns="http://www.w3.org/2000/svg"><path d="m133.144531 388.707031c0-55.847656 37.183594-103.003906 88.136719-118.082031v-149.8125c0-2.875-2.332031-5.210938-5.210938-5.210938h-210.359374c-2.878907 0-5.210938 2.332032-5.210938 5.210938v385.976562c0 2.875 2.332031 5.210938 5.210938 5.210938h210.359374c2.878907 0 5.210938-2.332031 5.210938-5.210938-50.953125-15.082031-88.136719-62.238281-88.136719-118.082031zm0 0" fill="#dfedff"/><path d="m181.28125 291.046875v-175.445313h34.789062c2.878907 0 5.210938 2.332032 5.210938 5.210938v149.8125c-14.660156 4.339844-28.175781 11.332031-40 20.421875zm-27.753906 165.515625c-19.667969 21.753906-48.097656 35.4375-79.734375 35.4375h-73.292969v14.789062c0 2.875 2.332031 5.210938 5.210938 5.210938h210.359374c2.878907 0 5.210938-2.332031 5.210938-5.210938-28.070312-8.308593-51.960938-26.351562-67.753906-50.226562zm0 0" fill="#b4e7fd"/><path d="m133.144531 388.707031c0-55.847656 37.183594-103.003906 88.136719-118.082031v-65.722656c-1.941406.148437-4.050781.230468-6.371094.230468-26.007812 0-26.007812-10-52.015625-10-26.003906 0-26.003906 10-52.011719 10-26.003906 0-26.003906-10-52.007812-10s-26.003906 10-52.011719 10c-2.316406 0-4.421875-.082031-6.363281-.226562v272.617188h170.5c-23.328125-22.40625-37.855469-53.914063-37.855469-88.816407zm0 0" fill="#ffd54f"/><path d="m171 477.523438h-170.5v29.265624c0 2.875 2.332031 5.210938 5.210938 5.210938h210.359374c2.878907 0 5.210938-2.332031 5.210938-5.210938-19.109375-5.65625-36.28125-15.820312-50.28125-29.265624zm0 0" fill="#c0dbff"/><path d="m208.832031 477.523438h-81.136719c-15.84375 9.203124-34.257812 14.476562-53.902343 14.476562h-73.292969v14.785156c0 2.878906 2.332031 5.214844 5.210938 5.214844h210.359374c2.878907 0 5.210938-2.335938 5.210938-5.214844v-11.332031c-.855469-1.046875-1.6875-2.125-2.46875-3.273437zm0 0" fill="#81b8fd"/><path d="m82.507812 115.601562h-42.816406l21.316406 79.554688c22.40625.5 24.433594 8.839844 45.464844 9.871094zm0 0" fill="#52b96a"/><path d="m39.691406 115.601562h42.816406l-30.273437-112.996093c-.503906-1.875-2.433594-2.988281-4.308594-2.484375l-33.15625 8.882812c-1.875.503906-2.988281 2.429688-2.484375 4.304688zm0 0" fill="#7fcd91"/><path d="m257.003906 224.980469c5.691406 21.238281 27.164063 33.9375 47.960938 28.363281 20.796875-5.570312 33.042968-27.304688 27.351562-48.542969s-39.949218-61.300781-55.65625-57.09375c-15.707031 4.210938-25.347656 56.035157-19.65625 77.273438zm0 0" fill="#7fcd91"/><path d="m332.316406 204.800781c-5.691406-21.238281-39.949218-61.300781-55.65625-57.09375-1.617187.433594-3.167968 1.378907-4.648437 2.734375 13.597656 12.675782 26.941406 31.804688 30.304687 44.359375 5.691406 21.238281-6.554687 42.972657-27.351562 48.542969-2.03125.546875-4.066406.910156-6.09375 1.113281 9.53125 8.625 22.945312 12.410157 36.09375 8.886719 20.796875-5.570312 33.042968-27.304688 27.351562-48.542969zm0 0" fill="#52b96a"/><path d="m332.613281 292.078125c-12.945312 5.226563-24.851562 12.992187-35.097656 23.046875-9.53125-2.394531-16.46875-9.324219-18.875-18.847656 8.148437-8.027344 17.140625-14.886719 26.773437-20.503906-15.050781-6.558594-31.664062-10.203126-49.132812-10.203126-68.003906 0-123.136719 55.128907-123.136719 123.136719 0 68.003907 55.132813 123.136719 123.136719 123.136719 68.007812 0 123.136719-55.132812 123.136719-123.136719 0-39.175781-18.292969-74.074219-46.804688-96.628906zm0 0" fill="#fcb54c"/><path d="m311.613281 188.449219c-3.585937-2.070313-8.171875-.84375-10.242187 2.746093l-3.617188 6.261719-5.746094-21.449219c-1.070312-4-5.183593-6.378906-9.1875-5.300781-4 1.070313-6.375 5.183594-5.300781 9.183594l10.175781 37.976563-7.179687-4.144532c-3.585937-2.070312-8.175781-.839844-10.246094 2.746094-2.070312 3.585938-.84375 8.175781 2.746094 10.246094l20.167969 11.644531 1.917968 7.15625c3.746094 13.992187 1.019532 28.742187-7.484374 40.46875l-6.28125 8.660156c-2.429688 3.351563-1.683594 8.039063 1.667968 10.472657 1.332032.964843 2.871094 1.429687 4.398438 1.429687 2.320312 0 4.609375-1.074219 6.078125-3.097656l6.277343-8.65625c11.171876-15.402344 14.757813-34.777344 9.832032-53.15625l-6.347656-23.6875 11.117187-19.253907c2.070313-3.585937.84375-8.175781-2.746094-10.246093zm0 0" fill="#aed581"/><path d="m297.515625 315.125c-9.53125-2.394531-16.46875-9.324219-18.875-18.847656 25.304687-24.933594 58.753906-38.65625 94.316406-38.65625 7.367188 0 13.339844 5.96875 13.339844 13.335937 0 7.367188-5.972656 13.335938-13.339844 13.335938-28.429687 0-55.179687 10.945312-75.441406 30.832031zm0 0" fill="#aed581"/><path d="m375.949219 257.96875c.21875.960938.347656 1.957031.347656 2.988281 0 7.367188-5.972656 13.335938-13.339844 13.335938-26.609375 0-51.746093 9.589843-71.472656 27.125-2.828125 2.511719-6.972656 3.054687-10.300781 1.25l-.058594-.03125c3.394531 6.21875 9.140625 10.667969 16.390625 12.492187 20.261719-19.890625 47.007813-30.835937 75.441406-30.835937 7.367188.003906 13.339844-5.96875 13.339844-13.335938 0-6.335937-4.425781-11.628906-10.347656-12.988281zm0 0" fill="#8bc34a"/><path d="m318.433594 388.707031c0 4.140625-3.359375 7.5-7.5 7.5-4.144532 0-7.5-3.359375-7.5-7.5 0-4.144531 3.355468-7.5 7.5-7.5 4.140625 0 7.5 3.355469 7.5 7.5zm17.789062 29.558594c-4.140625 0-7.5 3.355469-7.5 7.5 0 4.140625 3.359375 7.5 7.5 7.5 4.144532 0 7.5-3.359375 7.5-7.5 0-4.144531-3.355468-7.5-7.5-7.5zm-33.347656 28.179687c-4.140625 0-7.5 3.355469-7.5 7.5 0 4.140626 3.359375 7.5 7.5 7.5 4.144531 0 7.503906-3.359374 7.503906-7.5 0-4.144531-3.359375-7.5-7.503906-7.5zm0 0" fill="#fa9a0f"/><path d="m332.613281 292.078125c-5.035156 2.03125-9.910156 4.453125-14.59375 7.242187 13.5 19.753907 21.398438 43.648438 21.398438 69.382813 0 68.007813-55.128907 123.136719-123.136719 123.136719-11.828125 0-23.265625-1.671875-34.09375-4.785156 20.617188 15.558593 46.277344 24.785156 74.097656 24.785156 68.003906 0 123.132813-55.128906 123.132813-123.136719 0-39.171875-18.292969-74.070313-46.804688-96.625zm0 0" fill="#fa9a0f"/><path d="m302.875 461.445312c4.144531 0 7.503906-3.359374 7.503906-7.5 0-1.585937-.496094-3.054687-1.335937-4.265624-3.234375 3.703124-6.683594 7.207031-10.332031 10.5 1.191406.796874 2.621093 1.265624 4.164062 1.265624zm0 0" fill="#f57c00"/><path d="m343.722656 425.765625c0 4.140625-3.355468 7.5-7.5 7.5-4.140625 0-7.5-3.359375-7.5-7.5 0-4.144531 3.359375-7.5 7.5-7.5 4.144532 0 7.5 3.355469 7.5 7.5zm0 0" fill="#f57c00"/><g fill="#ffc107"><path d="m171 477.523438h-43.300781c9.671875-5.617188 18.371093-12.71875 25.824219-20.960938 5.042968 7.621094 10.910156 14.652344 17.476562 20.960938zm50.28125-206.898438v-65.71875c-1.941406.144531-4.050781.226562-6.371094.226562-17.859375 0-23.457031-4.714843-33.628906-7.667968v93.582031c11.824219-9.089844 25.339844-16.082031 40-20.421875zm0 0"/><path d="m133.144531 388.707031c0-17.015625 3.453125-33.222656 9.691407-47.960937l-36.363282-135.71875c-21.03125-1.03125-23.058594-9.367188-45.464844-9.867188l61.09375 227.996094c.503907 1.875 2.429688 2.988281 4.304688 2.488281l11.460938-3.070312c-3.074219-10.761719-4.722657-22.121094-4.722657-33.867188zm0 0"/></g></svg>