<svg height="512" viewBox="0 0 36 60" width="512" xmlns="http://www.w3.org/2000/svg"><g id="Page-1" fill="none" fill-rule="evenodd"><g id="034---Potato-Chips" fill-rule="nonzero"><ellipse id="Oval" cx="18" cy="5" fill="#f5f5f5" rx="17" ry="4"/><path id="Shape" d="m18 1c-.506 0-1 .008-1.5.018 8.686.182 15.5 1.891 15.5 3.982s-6.814 3.8-15.5 3.982c.5.01.994.018 1.5.018 9.39 0 17-1.79 17-4s-7.61-4-17-4z" fill="#cfd8dc"/><path id="Shape" d="m35 5v5c0 .47-.35.93-1 1.35-2.36 1.55-8.63 2.65-16 2.65s-13.64-1.1-16-2.65c-.65-.42-1-.88-1-1.35v-5c0 2.21 7.61 4 17 4s17-1.79 17-4z" fill="#cfd8dc"/><path id="Shape" d="m15 9c.506 0 1-.008 1.5-.018-8.686-.182-15.5-1.891-15.5-3.982v2.267c3.066 1.047 8.189 1.733 14 1.733z" fill="#9e9e9e"/><path id="Shape" d="m32 7.267v2.733c0 .47-.35.93-1 1.35-2.2 1.444-7.789 2.5-14.5 2.634.5.01.994.016 1.5.016 7.37 0 13.64-1.1 16-2.65.65-.42 1-.88 1-1.35v-5c0 .842-1.111 1.623-3 2.267z" fill="#9e9e9e"/><path id="Shape" d="m34 11.35v44.65c0 1.66-7.16 3-16 3s-16-1.34-16-3v-44.65c2.36 1.55 8.63 2.65 16 2.65s13.64-1.1 16-2.65z" fill="#f44335"/><path id="Shape" d="m31 12.573v43.427c0 1.565-6.365 2.844-14.5 2.986.494.008.994.014 1.5.014 8.84 0 16-1.34 16-3v-44.65c-.9351769.5514432-1.9458273.9634517-3 1.223z" fill="#c81e1e"/><path id="Shape" d="m27.89 38.83c-1.6468971 3.3660719-4.8931931 5.6630092-8.615463 6.0959253-3.72227.4329162-7.4090716-1.0576717-9.784537-3.9559253l-2.48-6.44c-.01-.18-.01-.35-.01-.53.00032394-4.3344747 2.54604324-8.2646656 6.5014863-10.0372741 3.9554431-1.7726085 8.5830955-1.0571218 11.8185137 1.8272741z" fill="#c81e1e"/><circle id="Oval" cx="8" cy="20" fill="#ff9801" r="2"/><circle id="Oval" cx="28" cy="20" fill="#ff9801" r="2"/><path id="Shape" d="m15.75 36.19c-.1939456 1.9896731-1.4712411 3.7094052-3.32 4.47-3.41 1.17-5.59-.61-6.13-2.12s-.69-4 2.72-5.17c2.11-.73 4.9 1.22 6.73 2.82z" fill="#fec108"/><path id="Shape" d="m26.22 40.06c-3.01 1.52-6.39.45-8.61-2.04-.5883865-.6413202-1.2091979-1.2521185-1.86-1.83-1.83-1.6-4.62-3.55-6.73-2.82 3.64-1.26 8.07-5.26 9.97-7.08.8299905-.8234153 1.9508605-1.2868519 3.12-1.29 3.7318889.1737507 6.8759131 2.8451439 7.65 6.5.9233112 3.3275567-.5361066 6.8565443-3.54 8.56z" fill="#ffeb3a"/><path id="Shape" d="m29.76 31.5c-.7740869-3.6548561-3.9181111-6.3262493-7.65-6.5-.4457815.0065214-.8879242.0813923-1.311.222 2.992204.8340828 5.2829326 3.2466301 5.961 6.278.9233112 3.3275567-.5361066 6.8565443-3.54 8.56-.4554273.2285707-.9360257.4030896-1.432.52 1.4921101.3601316 3.0637727.1757308 4.432-.52 3.0038934-1.7034557 4.4633112-5.2324433 3.54-8.56z" fill="#fdd834"/><g fill="#000"><path id="Shape" d="m18 0c-6.686 0-18 1.053-18 5v5c.03368786.7366468.4019564 1.4175753 1 1.849v44.151c0 3.807 14.161 4 17 4s17-.193 17-4v-44.151c.5980436-.4314247.9663121-1.1123532 1-1.849v-5c0-3.947-11.314-5-18-5zm16 9.995c-.0578511.1751958-.1753429.3245378-.332.422-.1486909.0514617-.283041.1374869-.392.251-1.856 1.032-7.201 2.332-15.276 2.332s-13.416-1.295-15.273-2.328c-.11040649-.1167428-.24774771-.2046412-.4-.256-.1539712-.0965194-.26957621-.2435888-.327-.416v-2.487c3.549 1.907 11.044 2.487 16 2.487s12.452-.58 16-2.487zm-16-7.995c9.975 0 15.792 1.979 16 3-.208 1.021-6.025 3-16 3s-15.807-1.984-16-2.994v-.006c.193-1.016 6.011-3 16-3zm15 53.875c-.711.749-5.783 2.125-15 2.125s-14.289-1.376-15-2.125v-42.9c3.821 1.54 10.471 2.025 15 2.025s11.179-.485 15-2.024z"/><path id="Shape" d="m25.881 24.959c-3.5439525-3.0944203-8.5699014-3.8308551-12.8526439-1.8832531-4.28274246 1.9476019-7.03113873 6.2194652-7.0283561 10.9242531v.155c-.23248157.2724941-.42970156.5731958-.587.895-.53344468 1.2178705-.55506471 2.5990297-.06 3.833.63899354 1.5335418 1.99085069 2.6551047 3.616 3 2.6216264 3.011229 6.5705186 4.519397 10.5320112 4.0224046s7.4154531-2.9338914 9.2119888-6.4994046c1.9903336-2.2045953 2.7482201-5.2575272 2.02-8.137-.6392848-2.7010151-2.4058156-4.998379-4.852-6.31zm-7.881-.959c.8111881.0022202 1.6191039.1029579 2.406.3-.787077.2603738-1.5064285.6924629-2.106 1.265-1.725 1.659-6.112 5.646-9.6 6.854-.216.075-.4.171-.6.257.66574751-4.9609508 4.8945858-8.666951 9.9-8.676zm-10.764 14.2c-.30011043-.7324932-.30548489-1.5526366-.015-2.289.46493551-.7972931 1.23115939-1.3739433 2.126-1.6 1.167-.4 3.084.418 5.3 2.259-.2478045 1.416155-1.2094226 2.6039027-2.543 3.141-2.798.967-4.47-.411-4.868-1.511zm4.582 3.662c.3184455-.0691589.6326345-.1566377.941-.262 1.6489993-.5828039 2.943026-1.8845594 3.516-3.537.37.372.587.615.591.619 1.8395528 2.2332041 4.6989164 3.3625168 7.568 2.989-3.6340689 3.0308887-8.8918453 3.1104888-12.616.191zm13.946-2.694c-2.422 1.227-5.329.515-7.405-1.816-.6142375-.6718407-1.2648825-1.3094662-1.949-1.91-1.1720016-1.0786006-2.4999258-1.9743342-3.939-2.657 2.5955273-1.674986 5.0139711-3.609607 7.218-5.774.6399901-.6358737 1.501912-.9983541 2.404-1.011h.01c3.2727177.1757824 6.0178314 2.5310235 6.689 5.739.8072451 2.8776261-.4392974 5.9363483-3.028 7.43z"/><path id="Shape" d="m8 23c1.65685425 0 3-1.3431458 3-3s-1.34314575-3-3-3-3 1.3431458-3 3 1.34314575 3 3 3zm0-4c.55228475 0 1 .4477153 1 1s-.44771525 1-1 1-1-.4477153-1-1 .44771525-1 1-1z"/><path id="Shape" d="m28 23c1.6568542 0 3-1.3431458 3-3s-1.3431458-3-3-3-3 1.3431458-3 3 1.3431458 3 3 3zm0-4c.5522847 0 1 .4477153 1 1s-.4477153 1-1 1-1-.4477153-1-1 .4477153-1 1-1z"/><path id="Shape" d="m27.314 47.272c-.02.018-2.027 1.728-9.314 1.728s-9.291-1.707-9.293-1.707c-.39237889-.3789722-1.01608478-.3735524-1.40181858.0121814-.38573379.3857338-.39115363 1.0094397-.01218142 1.4018186.234.235 2.529 2.293 10.707 2.293s10.473-2.058 10.707-2.293c.3792299-.3814253.3836746-.9961307.01-1.383-.3778803-.3911496-.9972016-.4141038-1.403-.052z"/><path id="Shape" d="m23.354 53.238c-.01.008-1.094.762-5.354.762-4.234 0-5.326-.754-5.294-.708-.3926454-.3787042-1.0163551-.3728476-1.40182.0131628-.3854648.3860105-.3904391 1.0097279-.01118 1.4018372.307.303 1.683 1.293 6.707 1.293s6.4-.99 6.707-1.293c.3992096-.3929248.4129545-1.0322818.031-1.442-.1778804-.1907901-.4254856-.3013499-.6862852-.3064377-.2607995-.0050879-.5125284.0957306-.6977148.2794377z"/></g></g></g></svg>