<svg id="Capa_1" enable-background="new 0 0 512 512" height="512" viewBox="0 0 512 512" width="512" xmlns="http://www.w3.org/2000/svg"><g><path d="m151 316.394h326.08v85.14h-326.08z" fill="#f1f4f6"/><path d="m455.953 316.394h21.128v85.14h-21.128z" fill="#dfeaef"/><path d="m496.131 401.536h-19.051v-85.141h19.052c4.622 0 8.369 3.747 8.369 8.369v68.403c-.001 4.622-3.748 8.369-8.37 8.369z" fill="#dd636e"/><path d="m151 316.394v85.14h-143.5v-85.14z" fill="#eab14d"/><g><path d="m496.131 308.894c-21.77 0-122.835 0-147.706 0-4.143 0-7.5 3.357-7.5 7.5s3.357 7.5 7.5 7.5h121.155v70.141h-311.08v-70.141h159.938c4.143 0 7.5-3.357 7.5-7.5s-3.357-7.5-7.5-7.5c-22.629 0-296.748 0-310.938 0-4.143 0-7.5 3.357-7.5 7.5v85.141c0 4.143 3.357 7.5 7.5 7.5h22.14c4.143 0 7.5-3.357 7.5-7.5s-3.357-7.5-7.5-7.5h-14.64v-70.141h128.5v70.141h-83.873c-4.143 0-7.5 3.357-7.5 7.5s3.357 7.5 7.5 7.5c19.605 0 410.399.001 436.504.001 8.75 0 15.869-7.119 15.869-15.869v-68.403c0-8.751-7.119-15.87-15.869-15.87zm.869 84.273c0 .479-.39.869-.869.869h-11.551v-70.142h11.551c.479 0 .869.39.869.869z"/><path d="m471.64 147.482c6.424 0 11.65 5.227 11.65 11.65s-5.227 11.649-11.65 11.649h-13.321c-18.441 0-33.444 15.003-33.444 33.444s15.003 33.444 33.444 33.444h11.837c7.242 0 13.135 5.893 13.135 13.135v36.85c0 4.143 3.357 7.5 7.5 7.5s7.5-3.357 7.5-7.5v-36.85c0-15.514-12.621-28.135-28.135-28.135h-11.837c-10.17 0-18.444-8.274-18.444-18.444s8.274-18.444 18.444-18.444h13.321c14.695 0 26.65-11.955 26.65-26.649 0-14.695-11.955-26.65-26.65-26.65-8.419 0-15.268-6.85-15.268-15.269v-6.749c0-4.143-3.357-7.5-7.5-7.5s-7.5 3.357-7.5 7.5v6.749c0 16.691 13.578 30.269 30.268 30.269z"/><path d="m404.931 140.71h6.339c6.081 0 11.028 4.947 11.028 11.028s-4.947 11.028-11.028 11.028c-9.289 0-16.847 7.558-16.847 16.847v25.972c0 4.143 3.357 7.5 7.5 7.5s7.5-3.357 7.5-7.5v-25.972c0-1.019.828-1.847 1.847-1.847 14.353 0 26.028-11.676 26.028-26.028s-11.676-26.028-26.028-26.028h-6.339c-1.019 0-1.847-.828-1.847-1.847v-13.399c0-4.143-3.357-7.5-7.5-7.5s-7.5 3.357-7.5 7.5v13.399c0 9.29 7.558 16.847 16.847 16.847z"/><path d="m461.072 289.487c4.143 0 7.5-3.357 7.5-7.5v-10.983c0-12.924-10.515-23.438-23.438-23.438h-10.527c-4.143 0-7.5 3.357-7.5 7.5s3.357 7.5 7.5 7.5h10.527c4.653 0 8.438 3.785 8.438 8.438v10.983c0 4.142 3.358 7.5 7.5 7.5z"/></g></g></svg>