<svg height="512" viewBox="0 0 512 512" width="512" xmlns="http://www.w3.org/2000/svg"><g id="Flat"><path d="m256 240v184l8 16v40a8 8 0 0 1 -8 8h-176a8 8 0 0 1 -8-8v-40l8-16v-184a8 8 0 0 1 -8-8v-27.57a8 8 0 0 1 3.76-6.78l60.24-29.65a158.861 158.861 0 0 1 -2.58-64.54l2.58-15.46h64l2.58 15.46a158.746 158.746 0 0 1 1.49 40.54 159.382 159.382 0 0 1 -4.07 24l60.24 29.65a8 8 0 0 1 3.76 6.78v27.57a7.989 7.989 0 0 1 -8 8z" fill="#de5d00"/><path d="m144 24h48a8 8 0 0 1 8 8v56a0 0 0 0 1 0 0h-64a0 0 0 0 1 0 0v-56a8 8 0 0 1 8-8z" fill="#374357"/><path d="m80 240h176v184h-176z" fill="#374357"/><path d="m256 251.69v172.31h-176v-36.36c64.6-27.37 125.38-70.91 176-135.95z" fill="#313b4c"/><rect fill="#eb7206" height="16" rx="8" width="136" x="128" y="200"/><rect fill="#eb7206" height="16" rx="8" width="136" x="128" y="448"/><path d="m204.07 144h-72.14a158.746 158.746 0 0 1 1.49-40.54l2.58-15.46h64l2.58 15.46a158.746 158.746 0 0 1 1.49 40.54z" fill="#374357"/><path d="m219.35 296.456a88.353 88.353 0 0 0 -102.7 0l-9.3-13.019a104.353 104.353 0 0 1 121.3 0z" fill="#485870"/><ellipse cx="168" cy="320" fill="#485870" rx="32" ry="16"/><path d="m120 352h96v16h-96z" fill="#485870"/><path d="m136 384h64v16h-64z" fill="#485870"/><g fill="#eb7206"><path d="m224 208h16v32h-16z"/><path d="m224 424h16v64h-16z"/><path d="m96 208h16v32h-16z"/><path d="m96 448h16v40h-16z"/></g><path d="m136 72h64v16h-64z" fill="#313b4c"/><path d="m440 336v136a16 16 0 0 1 -16 16h-112a16.008 16.008 0 0 1 -15.27-11.2 16.217 16.217 0 0 1 -.73-4.8v-136z" fill="#d6d6d4"/><path d="m440 388.26v83.74a16 16 0 0 1 -16 16h-112a16.008 16.008 0 0 1 -15.27-11.2c51.85-22.48 100.35-51.57 143.27-88.54z" fill="#cfcfcd"/><path d="m296 368h144v88h-144z" fill="#de5d00"/><path d="m440 388.26v67.74h-99.92a538.53 538.53 0 0 0 99.92-67.74z" fill="#cf5700"/><path d="m408 408v40a8 8 0 0 1 -8 8h-40a8 8 0 0 1 -7.87-6.56 7.638 7.638 0 0 1 -.13-1.44v-40a8 8 0 0 1 8-8h40a8 8 0 0 1 8 8z" fill="#eb7206"/><path d="m408 413.65v34.35a8 8 0 0 1 -8 8h-40a8 8 0 0 1 -7.87-6.56 548.593 548.593 0 0 0 55.87-35.79z" fill="#e66b00"/></g></svg>